<svg xmlns="http://www.w3.org/2000/svg" viewBox="0 0 885 1106"><title>IcommaArtboard 2Cover</title><g id="Layer_2" data-name="Layer 2"><path d="M441.94,443.18c0-122-100.08-220.93-223.55-220.93V443.18Z" style="fill:#1d4de1"/><path d="M665.5,885.06c0-122-100.09-220.94-223.56-220.94V885.06Z" style="fill:#3a67f4"/><path d="M441.94,223.55c0-122-100.08-220.93-223.55-220.93V223.55Z" style="fill:#1d4de1"/><path d="M889.05,443.18c0-122.74-100.09-222.24-223.55-222.24V443.18Z" style="fill:#1d4de1"/><path d="M889.05,220.94C889.05,98.92,789,0,665.5,0V220.94Z" style="fill:#1d4de1"/><path d="M218.39,222.25H-5.16c121.71,0,220.63,97.28,223.42,218.32h.13Z" style="fill:#1d4de1"/><path d="M665.5,664.12H889.05c-121.71,0-220.63,97.29-223.42,218.33h-.13Z" style="fill:#26e2fb"/><path d="M-5.16,146.58A142.65,142.65,0,0,1,137.49,3.92h80.9C96.68,3.92-2.24,101.21-5,222.25h-.13Z" style="fill:#3a67f4"/><path d="M441.94,220.94H665.5c-121.71,0-220.63,97.28-223.42,218.32h-.14Z" style="fill:#3a67f4"/><path d="M-.73,443.18H222.83C101.12,443.18,2.2,540.47-.59,661.51H-.73Z" style="fill:#3a67f4"/><path d="M218.39,664.12c0-122,100.09-220.94,223.55-220.94V664.12Z" style="fill:#1d4de1"/><path d="M665.5,664.12c0-122,100.09-220.94,223.55-220.94V664.12Z" style="fill:#1d4de1"/><path d="M441.94,443.18H665.5c-121.71,0-220.63,97.29-223.42,218.33h-.14Z" style="fill:#26e2fb"/><path d="M218.39,664.12V440.57C218.39,562.28,121.11,661.2.07,664v.13Z" style="fill:#26e2fb"/><path d="M665.5,1106V882.45c0,121.71-97.28,220.63-218.32,223.42v.13Z" style="fill:#26e2fb"/><path d="M665.5,220.94V0c0,121.71-97.28,218-218.32,220.81v.13Z" style="fill:#1d4de1"/><path d="M441.94,885.72V662.16c0,121.71-97.28,220.63-218.32,223.42v.14Z" style="fill:#3a67f4"/><path d="M-5.16,1106c0-122,100.08-220.94,223.55-220.94V1106Z" style="fill:#3a67f4"/><path d="M218.39,885.06c0,122,102.43,220.94,228.79,220.94V885.06Z" style="fill:#1d4de1"/><rect x="665.5" y="885.06" width="223.55" height="220.94" style="fill:#3a67f4"/><rect x="0.07" y="664.12" width="218.32" height="220.94" style="fill:#1d4de1"/><g style="opacity:0.09"><path d="M218.39,220.94c-123.47,0-223.55,99.5-223.55,222.24H218.39Z" style="fill:#104c8a"/><path d="M665.63,440.57C668.4,320.4,765.91,223.66,886.41,222.26a2.66,2.66,0,0,0,2.64-2.65v-67A148.72,148.72,0,0,0,740.33,3.92H665.5c120.79,0,219.13,95.82,223.34,215.58a2.67,2.67,0,0,1-2.66,2.75h-218a2.66,2.66,0,0,1-2.66-2.66V2.62C542.94,2.62,443.42,100.08,442,220.87a2.66,2.66,0,0,0,2.67,2.68H610.76a2.66,2.66,0,0,1,.64,5.24C514.92,252.49,443.19,338.11,442,440.5a2.66,2.66,0,0,0,2.67,2.68H661.06c.62,0,1.24,0,1.86,0a2.66,2.66,0,0,1,2.58,2.66V882.4a2.66,2.66,0,0,0,2.66,2.66h213a2.66,2.66,0,0,0,2.66-2.66V664c-119.2-2.75-215.31-98.74-218.2-217.9a2.66,2.66,0,0,1,2.74-2.72c118.34,3.8,213.39,99.53,216.12,218.14h.13V445.85a2.67,2.67,0,0,0-2.66-2.67H668.13a2.62,2.62,0,0,1-2.63-2.59v0Z" style="fill:#104c8a"/><path d="M441.81,439.26h.13V220.94h-5.23v-.13C315.67,218,218.39,121.71,218.39,0,94.92,0-5.16,98.92-5.16,220.94H218.39C340.1,220.94,439,318.22,441.81,439.26Z" style="fill:#104c8a"/><path d="M-5.16,443.18V664.12c121.71,0,220.63,97.28,223.42,218.33h.13V664.12C218.39,542.1,118.3,443.18-5.16,443.18Z" style="fill:#104c8a"/><path d="M442,664.12H665.5c0-122-100.09-220.94-223.56-220.94H218.39c121.71,0,220.63,97.29,223.42,218.33h.13v2.61c-123,0-222.81,98.23-223.52,219.65,0-.44,0-.88,0-1.32v2.61H-5.16V1106H436.71c126.36,0,228.79-98.92,228.79-220.94H649.4C534.1,876.85,443,781.27,442,664.12Zm-5.28,441.75c-120.17-2.77-216.87-100.3-218.25-220.81H436.71Z" style="fill:#104c8a"/><path d="M889.05,1106c0-122-100.09-220.94-223.55-220.94V1106Z" style="fill:#104c8a"/></g><circle cx="441.35" cy="336.75" r="110.47" style="fill:#26e2fb;stroke:#fff;stroke-miterlimit:10;stroke-width:7px"/><path d="M551.82,447.22l-.55,219.59c-121.18-.28-219.38-98.43-219.74-219.59Z" style="fill:#3a67f4;stroke:#fff;stroke-miterlimit:10;stroke-width:7px"/></g></svg>