<svg xmlns="http://www.w3.org/2000/svg" viewBox="0 0 1134.64 569.3"><title>IcommaArtboard 4mobilehead</title><g id="Layer_4" data-name="Layer 4"><path d="M568.92.75c0-156.94-128.74-284.17-287.54-284.17V.75Z" style="fill:#1d4de1"/><path d="M856.46,569.11c0-156.95-128.74-284.18-287.54-284.18V569.11Z" style="fill:#3a67f4"/><path d="M1144,.75c0-157.87-128.74-285.86-287.54-285.86V.75Z" style="fill:#1d4de1"/><path d="M856.46,284.93H1144c-156.55,0-283.78,125.13-287.37,280.81h-.17Z" style="fill:#26e2fb"/><path d="M-.45.75H287.09C130.54.75,3.3,125.88-.28,281.57H-.45Z" style="fill:#3a67f4"/><path d="M281.38,284.93C281.38,128,410.11.75,568.92.75V284.93Z" style="fill:#1d4de1"/><path d="M856.46,284.93C856.46,128,985.2.75,1144,.75V284.93Z" style="fill:#1d4de1"/><path d="M568.92.75H856.46C699.91.75,572.68,125.88,569.09,281.57h-.17Z" style="fill:#26e2fb"/><path d="M281.38,284.93V-2.61c0,156.55-125.13,283.78-280.81,287.37v.17Z" style="fill:#26e2fb"/><path d="M856.46,853.28V565.74c0,156.55-125.13,283.78-280.81,287.37v.17Z" style="fill:#26e2fb"/><path d="M568.92,570V282.41c0,156.54-125.13,283.78-280.81,287.37V570Z" style="fill:#3a67f4"/><path d="M-6.16,853.28c0-156.94,128.73-284.17,287.54-284.17V853.28Z" style="fill:#3a67f4"/><path d="M281.38,569.11c0,156.94,131.75,284.17,294.27,284.17V569.11Z" style="fill:#1d4de1"/><rect x="856.46" y="569.11" width="287.54" height="284.18" style="fill:#3a67f4"/><rect x="0.57" y="284.93" width="280.81" height="284.18" style="fill:#1d4de1"/><g style="opacity:0.09"><path d="M281.38-285.11C122.57-285.11-6.16-157.12-6.16.75H281.38Z" style="fill:#104c8a"/><path d="M856.63-2.61c3.56-154.56,129-279,284-280.79a3.43,3.43,0,0,0,3.4-3.42v-86.12c0-105.65-85.64-191.3-191.29-191.3H856.46c155.36,0,281.85,123.24,287.27,277.28a3.43,3.43,0,0,1-3.43,3.54H859.88a3.43,3.43,0,0,1-3.42-3.43V-565.92c-157.64,0-285.65,125.37-287.52,280.72a3.43,3.43,0,0,0,3.43,3.46H786.05a3.41,3.41,0,0,1,.82,6.73C662.78-244.53,570.52-134.4,568.94-2.7A3.43,3.43,0,0,0,572.37.75H850.75c.8,0,1.6,0,2.39.05a3.42,3.42,0,0,1,3.32,3.42V565.68a3.43,3.43,0,0,0,3.42,3.43h274a3.43,3.43,0,0,0,3.42-3.43V284.76C984,281.23,860.34,157.76,856.61,4.49A3.44,3.44,0,0,1,860.14,1c152.2,4.89,274.47,128,278,280.57h.17V4.18a3.43,3.43,0,0,0-3.42-3.43h-275a3.37,3.37,0,0,1-3.39-3.33v0Z" style="fill:#104c8a"/><path d="M-6.16.75V284.93c156.54,0,283.78,125.13,287.37,280.81h.17V284.93C281.38,128,152.64.75-6.16.75Z" style="fill:#104c8a"/><path d="M569,284.93H856.46C856.46,128,727.72.75,568.92.75H281.38c156.54,0,283.78,125.13,287.37,280.81h.17v3.37c-158.24,0-286.59,126.34-287.5,282.52,0-.58,0-1.14,0-1.71v3.37H-6.16V853.28H562.19c162.52,0,294.27-127.23,294.27-284.17H835.75C687.45,558.54,570.28,435.61,569,284.93Zm-6.79,568.18c-154.56-3.56-278.94-129-280.73-284H562.19Z" style="fill:#104c8a"/><path d="M1144,853.28c0-156.94-128.74-284.17-287.54-284.17V853.28Z" style="fill:#104c8a"/></g><circle cx="569.35" cy="171.75" r="110.47" style="fill:#26e2fb;stroke:#fff;stroke-miterlimit:10;stroke-width:7px"/><path d="M679.82,282.22l-.55,219.59c-121.18-.28-219.38-98.43-219.74-219.59Z" style="fill:#3a67f4;stroke:#fff;stroke-miterlimit:10;stroke-width:7px"/></g></svg>